<mxfile host="app.diagrams.net" modified="2024-04-25T12:28:42.706Z" agent="Mozilla/5.0 (Windows NT 10.0; Win64; x64) AppleWebKit/537.36 (KHTML, like Gecko) Chrome/124.0.0.0 Safari/537.36" etag="GpQON9S-vG0f46-UmOy8" version="24.3.0" type="device">
  <diagram name="PÃ¡gina-1" id="gP4icoR0jDzHdRY8oBsh">
    <mxGraphModel dx="1050" dy="564" grid="1" gridSize="10" guides="1" tooltips="1" connect="1" arrows="1" fold="1" page="1" pageScale="1" pageWidth="827" pageHeight="1169" math="0" shadow="0">
      <root>
        <mxCell id="0" />
        <mxCell id="1" parent="0" />
        <mxCell id="C4KcxU4eHtLDVBMtJBdw-16" style="edgeStyle=orthogonalEdgeStyle;rounded=0;orthogonalLoop=1;jettySize=auto;html=1;exitX=1;exitY=0.5;exitDx=0;exitDy=0;entryX=0;entryY=0.5;entryDx=0;entryDy=0;endArrow=none;endFill=0;" edge="1" parent="1" source="C4KcxU4eHtLDVBMtJBdw-1" target="C4KcxU4eHtLDVBMtJBdw-15">
          <mxGeometry relative="1" as="geometry" />
        </mxCell>
        <mxCell id="C4KcxU4eHtLDVBMtJBdw-1" value="User" style="rounded=0;whiteSpace=wrap;html=1;" vertex="1" parent="1">
          <mxGeometry x="360" y="160" width="120" height="60" as="geometry" />
        </mxCell>
        <mxCell id="C4KcxU4eHtLDVBMtJBdw-18" style="edgeStyle=orthogonalEdgeStyle;rounded=0;orthogonalLoop=1;jettySize=auto;html=1;exitX=1;exitY=0.5;exitDx=0;exitDy=0;entryX=0;entryY=0.5;entryDx=0;entryDy=0;endArrow=none;endFill=0;" edge="1" parent="1" source="C4KcxU4eHtLDVBMtJBdw-2" target="C4KcxU4eHtLDVBMtJBdw-15">
          <mxGeometry relative="1" as="geometry" />
        </mxCell>
        <mxCell id="C4KcxU4eHtLDVBMtJBdw-2" value="Organization&lt;span style=&quot;color: rgba(0, 0, 0, 0); font-family: monospace; font-size: 0px; text-align: start; text-wrap: nowrap;&quot;&gt;%3CmxGraphModel%3E%3Croot%3E%3CmxCell%20id%3D%220%22%2F%3E%3CmxCell%20id%3D%221%22%20parent%3D%220%22%2F%3E%3CmxCell%20id%3D%222%22%20value%3D%22User%22%20style%3D%22rounded%3D0%3BwhiteSpace%3Dwrap%3Bhtml%3D1%3B%22%20vertex%3D%221%22%20parent%3D%221%22%3E%3CmxGeometry%20x%3D%22360%22%20y%3D%22160%22%20width%3D%22120%22%20height%3D%2260%22%20as%3D%22geometry%22%2F%3E%3C%2FmxCell%3E%3C%2Froot%3E%3C%2FmxGraphModel%3E&lt;/span&gt;" style="rounded=0;whiteSpace=wrap;html=1;" vertex="1" parent="1">
          <mxGeometry x="360" y="370" width="120" height="60" as="geometry" />
        </mxCell>
        <mxCell id="C4KcxU4eHtLDVBMtJBdw-3" value="Vault" style="rounded=0;whiteSpace=wrap;html=1;" vertex="1" parent="1">
          <mxGeometry x="590" y="510" width="120" height="60" as="geometry" />
        </mxCell>
        <mxCell id="C4KcxU4eHtLDVBMtJBdw-6" value="" style="endArrow=none;html=1;rounded=0;exitX=0.5;exitY=1;exitDx=0;exitDy=0;entryX=0.5;entryY=0;entryDx=0;entryDy=0;" edge="1" parent="1" source="C4KcxU4eHtLDVBMtJBdw-1" target="C4KcxU4eHtLDVBMtJBdw-2">
          <mxGeometry relative="1" as="geometry">
            <mxPoint x="440" y="240" as="sourcePoint" />
            <mxPoint x="420" y="300" as="targetPoint" />
          </mxGeometry>
        </mxCell>
        <mxCell id="C4KcxU4eHtLDVBMtJBdw-7" value="M" style="resizable=0;html=1;whiteSpace=wrap;align=left;verticalAlign=bottom;" connectable="0" vertex="1" parent="C4KcxU4eHtLDVBMtJBdw-6">
          <mxGeometry x="-1" relative="1" as="geometry">
            <mxPoint x="3" y="21" as="offset" />
          </mxGeometry>
        </mxCell>
        <mxCell id="C4KcxU4eHtLDVBMtJBdw-8" value="N" style="resizable=0;html=1;whiteSpace=wrap;align=right;verticalAlign=bottom;" connectable="0" vertex="1" parent="C4KcxU4eHtLDVBMtJBdw-6">
          <mxGeometry x="1" relative="1" as="geometry">
            <mxPoint x="-3" y="-1" as="offset" />
          </mxGeometry>
        </mxCell>
        <mxCell id="C4KcxU4eHtLDVBMtJBdw-9" value="" style="endArrow=none;html=1;rounded=0;entryX=0.5;entryY=1;entryDx=0;entryDy=0;exitX=0.5;exitY=0;exitDx=0;exitDy=0;" edge="1" parent="1" source="C4KcxU4eHtLDVBMtJBdw-3" target="C4KcxU4eHtLDVBMtJBdw-15">
          <mxGeometry relative="1" as="geometry">
            <mxPoint x="550" y="330" as="sourcePoint" />
            <mxPoint x="710" y="330" as="targetPoint" />
          </mxGeometry>
        </mxCell>
        <mxCell id="C4KcxU4eHtLDVBMtJBdw-10" value="1" style="resizable=0;html=1;whiteSpace=wrap;align=right;verticalAlign=bottom;" connectable="0" vertex="1" parent="C4KcxU4eHtLDVBMtJBdw-9">
          <mxGeometry x="1" relative="1" as="geometry">
            <mxPoint x="13" as="offset" />
          </mxGeometry>
        </mxCell>
        <mxCell id="C4KcxU4eHtLDVBMtJBdw-11" value="N" style="text;html=1;align=center;verticalAlign=middle;resizable=0;points=[];autosize=1;strokeColor=none;fillColor=none;" vertex="1" parent="1">
          <mxGeometry x="650" y="480" width="30" height="30" as="geometry" />
        </mxCell>
        <mxCell id="C4KcxU4eHtLDVBMtJBdw-20" style="edgeStyle=orthogonalEdgeStyle;rounded=0;orthogonalLoop=1;jettySize=auto;html=1;exitX=0;exitY=0.5;exitDx=0;exitDy=0;entryX=0;entryY=0.5;entryDx=0;entryDy=0;" edge="1" parent="1" source="C4KcxU4eHtLDVBMtJBdw-12" target="C4KcxU4eHtLDVBMtJBdw-3">
          <mxGeometry relative="1" as="geometry">
            <Array as="points">
              <mxPoint x="300" y="290" />
              <mxPoint x="300" y="540" />
            </Array>
          </mxGeometry>
        </mxCell>
        <mxCell id="C4KcxU4eHtLDVBMtJBdw-12" value="Member" style="rhombus;whiteSpace=wrap;html=1;" vertex="1" parent="1">
          <mxGeometry x="390" y="265" width="60" height="50" as="geometry" />
        </mxCell>
        <mxCell id="C4KcxU4eHtLDVBMtJBdw-15" value="Owner" style="rounded=0;whiteSpace=wrap;html=1;" vertex="1" parent="1">
          <mxGeometry x="590" y="265" width="120" height="60" as="geometry" />
        </mxCell>
        <mxCell id="C4KcxU4eHtLDVBMtJBdw-19" value="manage" style="text;html=1;align=center;verticalAlign=middle;whiteSpace=wrap;rounded=0;" vertex="1" parent="1">
          <mxGeometry x="660" y="390" width="60" height="30" as="geometry" />
        </mxCell>
        <mxCell id="C4KcxU4eHtLDVBMtJBdw-21" value="access" style="text;html=1;align=center;verticalAlign=middle;resizable=0;points=[];autosize=1;strokeColor=none;fillColor=none;" vertex="1" parent="1">
          <mxGeometry x="240" y="410" width="60" height="30" as="geometry" />
        </mxCell>
      </root>
    </mxGraphModel>
  </diagram>
</mxfile>
